<svg width="52" height="52" viewBox="0 0 52 52" fill="none" xmlns="http://www.w3.org/2000/svg">
<g id="Frame" clip-path="url(#clip0_745_41)">
<g id="Group">
<g id="Layer 2">
<path id="Vector" d="M17.7393 50.9632H17.739L2.39717 50.9632L2.39416 50.9632C2.10845 50.964 1.82976 50.8748 1.59773 50.708C1.36571 50.5413 1.19217 50.3057 1.10182 50.0347C1.01147 49.7636 1.00892 49.471 1.09451 49.1984C1.18011 48.9258 1.3495 48.6872 1.57859 48.5165L1.58199 48.5139L4.62676 46.2244L5.45919 45.5985L4.79994 44.7922C3.23343 42.8763 2.11339 40.6354 1.52119 38.2325C0.928998 35.8296 0.879515 33.325 1.37634 30.9005C1.87317 28.4761 2.90383 26.1928 4.39344 24.2165C5.88304 22.2402 7.79419 20.6205 9.98802 19.4752L9.98804 19.4752C12.0743 18.386 13.5533 18.3099 14.6706 18.676C15.8211 19.0529 16.7998 19.9653 17.7352 21.2881C18.5104 22.3845 19.1877 23.6592 19.8924 24.9857C20.042 25.2673 20.1929 25.5512 20.3462 25.8363C21.1939 27.4128 22.1244 29.0386 23.2929 30.2071C24.486 31.4002 26.0697 32.1896 27.5541 32.8468C27.9366 33.0162 28.3103 33.1761 28.6736 33.3316C29.7821 33.8059 30.7933 34.2386 31.6617 34.7712C32.7815 35.4579 33.4606 36.1965 33.684 37.1739C33.9153 38.1862 33.7159 39.7004 32.4787 42.0572C31.0678 44.7448 28.9486 46.9953 26.3506 48.5651C23.7526 50.1349 20.7748 50.9642 17.7393 50.9632ZM9.52545 18.5892L9.52523 18.5887L9.52545 18.5892Z" stroke="#19BECB" stroke-width="2"/>
<path id="Vector_2" d="M51.019 35.9131L47.2001 33.0477C50.1457 29.5589 51.812 25.169 51.9233 20.6043C52.0346 16.0396 50.5842 11.5737 47.8121 7.9455C45.0399 4.31727 41.1122 1.74416 36.6788 0.651868C32.2453 -0.440422 27.5718 0.0135771 23.4314 1.93875C19.2911 3.86393 15.9321 7.1449 13.9101 11.2388C11.8881 15.3328 11.3244 19.9943 12.3122 24.4522C13.2999 28.9102 15.78 32.8973 19.3421 35.7539C22.9041 38.6106 27.3347 40.1656 31.9007 40.1616H49.6028C50.0982 40.1616 50.5811 40.0057 50.9829 39.7161C51.3848 39.4264 51.6854 39.0177 51.842 38.5477C51.9987 38.0778 52.0035 37.5704 51.8558 37.0976C51.7081 36.6247 51.4153 36.2103 51.019 35.9131ZM31.9007 31.9006C31.4339 31.9006 30.9776 31.7622 30.5894 31.5028C30.2013 31.2435 29.8987 30.8749 29.7201 30.4436C29.5415 30.0123 29.4947 29.5377 29.5858 29.0799C29.6769 28.622 29.9017 28.2015 30.2317 27.8714C30.5618 27.5413 30.9824 27.3165 31.4403 27.2254C31.8981 27.1343 32.3727 27.1811 32.804 27.3597C33.2352 27.5384 33.6039 27.8409 33.8632 28.229C34.1226 28.6172 34.261 29.0735 34.261 29.5403C34.261 30.1663 34.0123 30.7667 33.5697 31.2093C33.1271 31.6519 32.5267 31.9006 31.9007 31.9006ZM34.261 22.7498V23.6396C34.261 24.2656 34.0123 24.866 33.5697 25.3086C33.1271 25.7512 32.5267 25.9999 31.9007 25.9999C31.2747 25.9999 30.6744 25.7512 30.2317 25.3086C29.7891 24.866 29.5404 24.2656 29.5404 23.6396V22.6318C29.5289 21.67 29.8269 20.73 30.3905 19.9506C30.954 19.1711 31.7533 18.5935 32.6702 18.303C33.3548 18.0999 33.9314 17.6343 34.2741 17.0078C34.6168 16.3812 34.6978 15.6445 34.4994 14.9585C34.3778 14.5184 34.1444 14.1173 33.8217 13.7943C33.4991 13.4712 33.0983 13.2372 32.6584 13.1151C32.2485 13.0009 31.8177 12.9834 31.3999 13.0641C30.9821 13.1448 30.5888 13.3215 30.2509 13.5801C29.9236 13.8315 29.6588 14.155 29.477 14.5255C29.2952 14.896 29.2014 15.3035 29.2029 15.7162C29.2029 16.3421 28.9542 16.9425 28.5116 17.3851C28.069 17.8278 27.4686 18.0764 26.8426 18.0764C26.2166 18.0764 25.6163 17.8278 25.1737 17.3851C24.731 16.9425 24.4823 16.3421 24.4823 15.7162C24.4813 14.3497 24.8574 13.0094 25.5693 11.8431C26.2812 10.6767 27.3013 9.72945 28.5171 9.10571C29.7329 8.48197 31.0973 8.20594 32.4599 8.30801C33.8226 8.41009 35.1306 8.88632 36.24 9.68423C37.3493 10.4821 38.2168 11.5708 38.747 12.8302C39.2772 14.0896 39.4495 15.4709 39.2448 16.822C39.0402 18.1731 38.4666 19.4414 37.5872 20.4874C36.7079 21.5333 35.5569 22.3162 34.261 22.7498Z" fill="#19BECB"/>
</g>
</g>
</g>
<defs>
<clipPath id="clip0_745_41">
<rect width="52" height="52" fill="white"/>
</clipPath>
</defs>
</svg>
