<svg width="21" height="21" viewBox="0 0 21 21" fill="none" xmlns="http://www.w3.org/2000/svg">
<g id="Frame" clip-path="url(#clip0_724_896)">
<g id="Group">
<path id="Vector" d="M10.5 0C8.41227 0.00277808 6.41085 0.833355 4.9346 2.3096C3.45836 3.78585 2.62778 5.78727 2.625 7.875C2.625 13.5286 9.96187 20.6095 10.2736 20.9081C10.3342 20.9671 10.4154 21 10.5 21C10.5846 21 10.6658 20.9671 10.7264 20.9081C11.0381 20.6095 18.375 13.5286 18.375 7.875C18.3722 5.78727 17.5416 3.78585 16.0654 2.3096C14.5892 0.833355 12.5877 0.00277808 10.5 0ZM10.5 11.4844C9.78613 11.4844 9.0883 11.2727 8.49474 10.8761C7.90118 10.4795 7.43856 9.91578 7.16537 9.25625C6.89219 8.59672 6.82071 7.871 6.95998 7.17085C7.09925 6.4707 7.44301 5.82757 7.94779 5.32279C8.45257 4.81801 9.0957 4.47425 9.79585 4.33498C10.496 4.19571 11.2217 4.26719 11.8812 4.54037C12.5408 4.81356 13.1045 5.27618 13.5011 5.86974C13.8977 6.4633 14.1094 7.16113 14.1094 7.875C14.1088 8.83208 13.7283 9.74978 13.0515 10.4265C12.3748 11.1033 11.4571 11.4838 10.5 11.4844Z" fill="#19BECB"/>
</g>
</g>
<defs>
<clipPath id="clip0_724_896">
<rect width="21" height="21" fill="white"/>
</clipPath>
</defs>
</svg>
