<svg width="13" height="13" viewBox="0 0 13 13" fill="none" xmlns="http://www.w3.org/2000/svg">
<g id="phone" clip-path="url(#clip0_724_1027)">
<g id="Group">
<path id="Vector" d="M12.5818 9.36C12.5463 9.33183 9.96667 7.4724 9.2586 7.60587C8.9206 7.66567 8.72733 7.8962 8.3395 8.3577C8.2771 8.43223 8.12717 8.61077 8.0106 8.73773C7.7655 8.65779 7.52642 8.56048 7.29517 8.44653C6.10156 7.86544 5.13716 6.90104 4.55607 5.70743C4.44204 5.47621 4.34473 5.23713 4.26487 4.992C4.39227 4.875 4.5708 4.72507 4.64707 4.66093C5.1064 4.27527 5.33737 4.082 5.39717 3.74313C5.5198 3.04113 3.66167 0.443733 3.64217 0.420333C3.55786 0.299897 3.44784 0.199707 3.32006 0.127011C3.19228 0.0543156 3.04994 0.0109322 2.90333 0C2.1502 0 0 2.78937 0 3.2591C0 3.2864 0.0394334 6.06147 3.46147 9.54243C6.93897 12.9606 9.7136 13 9.7409 13C10.2111 13 13 10.8498 13 10.0967C12.9892 9.95058 12.9461 9.80871 12.8737 9.68131C12.8014 9.55392 12.7017 9.44417 12.5818 9.36Z" fill="#19BECB"/>
</g>
</g>
<defs>
<clipPath id="clip0_724_1027">
<rect width="13" height="13" fill="white"/>
</clipPath>
</defs>
</svg>
